<mxfile host="app.diagrams.net" modified="2022-04-17T19:32:55.321Z" agent="5.0 (Windows NT 10.0; Win64; x64) AppleWebKit/537.36 (KHTML, like Gecko) Chrome/100.0.4896.88 Safari/537.36" etag="acku1xfoRw23FgQ-XNFl" version="17.4.5" type="github">
  <diagram id="jf1D59YNUrUzJbvkD7DN" name="Page-1">
    <mxGraphModel dx="1988" dy="610" grid="1" gridSize="10" guides="1" tooltips="1" connect="1" arrows="1" fold="1" page="1" pageScale="1" pageWidth="850" pageHeight="1100" math="0" shadow="0">
      <root>
        <mxCell id="0" />
        <mxCell id="1" parent="0" />
        <mxCell id="F-vQ1ZQjYlF47RwyghoB-72" value="" style="edgeStyle=orthogonalEdgeStyle;rounded=0;orthogonalLoop=1;jettySize=auto;html=1;endArrow=none;endFill=0;" edge="1" parent="1" source="F-vQ1ZQjYlF47RwyghoB-1" target="F-vQ1ZQjYlF47RwyghoB-2">
          <mxGeometry relative="1" as="geometry" />
        </mxCell>
        <mxCell id="F-vQ1ZQjYlF47RwyghoB-1" value="Country" style="html=1;" vertex="1" parent="1">
          <mxGeometry x="515" y="400" width="110" height="50" as="geometry" />
        </mxCell>
        <mxCell id="F-vQ1ZQjYlF47RwyghoB-13" value="" style="edgeStyle=orthogonalEdgeStyle;rounded=0;orthogonalLoop=1;jettySize=auto;html=1;endArrow=none;endFill=0;" edge="1" parent="1" source="F-vQ1ZQjYlF47RwyghoB-2" target="F-vQ1ZQjYlF47RwyghoB-12">
          <mxGeometry relative="1" as="geometry" />
        </mxCell>
        <mxCell id="F-vQ1ZQjYlF47RwyghoB-2" value="ID Country" style="ellipse;whiteSpace=wrap;html=1;" vertex="1" parent="1">
          <mxGeometry x="665" y="400" width="100" height="50" as="geometry" />
        </mxCell>
        <mxCell id="F-vQ1ZQjYlF47RwyghoB-71" value="" style="edgeStyle=orthogonalEdgeStyle;rounded=0;orthogonalLoop=1;jettySize=auto;html=1;endArrow=none;endFill=0;" edge="1" parent="1" source="F-vQ1ZQjYlF47RwyghoB-3" target="F-vQ1ZQjYlF47RwyghoB-1">
          <mxGeometry relative="1" as="geometry" />
        </mxCell>
        <mxCell id="F-vQ1ZQjYlF47RwyghoB-3" value="name" style="ellipse;whiteSpace=wrap;html=1;" vertex="1" parent="1">
          <mxGeometry x="375" y="400" width="100" height="50" as="geometry" />
        </mxCell>
        <mxCell id="F-vQ1ZQjYlF47RwyghoB-18" value="" style="edgeStyle=orthogonalEdgeStyle;rounded=0;orthogonalLoop=1;jettySize=auto;html=1;endArrow=none;endFill=0;" edge="1" parent="1" source="F-vQ1ZQjYlF47RwyghoB-6" target="F-vQ1ZQjYlF47RwyghoB-17">
          <mxGeometry relative="1" as="geometry" />
        </mxCell>
        <mxCell id="F-vQ1ZQjYlF47RwyghoB-19" value="" style="edgeStyle=orthogonalEdgeStyle;rounded=0;orthogonalLoop=1;jettySize=auto;html=1;endArrow=none;endFill=0;" edge="1" parent="1" source="F-vQ1ZQjYlF47RwyghoB-6" target="F-vQ1ZQjYlF47RwyghoB-16">
          <mxGeometry relative="1" as="geometry" />
        </mxCell>
        <mxCell id="F-vQ1ZQjYlF47RwyghoB-6" value="City" style="html=1;" vertex="1" parent="1">
          <mxGeometry x="370" y="520" width="110" height="50" as="geometry" />
        </mxCell>
        <mxCell id="F-vQ1ZQjYlF47RwyghoB-14" value="" style="edgeStyle=orthogonalEdgeStyle;rounded=0;orthogonalLoop=1;jettySize=auto;html=1;endArrow=none;endFill=0;startArrow=none;" edge="1" parent="1" source="F-vQ1ZQjYlF47RwyghoB-20" target="F-vQ1ZQjYlF47RwyghoB-6">
          <mxGeometry relative="1" as="geometry" />
        </mxCell>
        <mxCell id="F-vQ1ZQjYlF47RwyghoB-12" value="Contains" style="rhombus;whiteSpace=wrap;html=1;" vertex="1" parent="1">
          <mxGeometry x="660" y="505" width="110" height="80" as="geometry" />
        </mxCell>
        <mxCell id="F-vQ1ZQjYlF47RwyghoB-23" value="" style="edgeStyle=orthogonalEdgeStyle;rounded=0;orthogonalLoop=1;jettySize=auto;html=1;endArrow=none;endFill=0;" edge="1" parent="1" source="F-vQ1ZQjYlF47RwyghoB-16" target="F-vQ1ZQjYlF47RwyghoB-22">
          <mxGeometry relative="1" as="geometry" />
        </mxCell>
        <mxCell id="F-vQ1ZQjYlF47RwyghoB-16" value="ID City" style="ellipse;whiteSpace=wrap;html=1;" vertex="1" parent="1">
          <mxGeometry x="375" y="620" width="100" height="50" as="geometry" />
        </mxCell>
        <mxCell id="F-vQ1ZQjYlF47RwyghoB-17" value="name" style="ellipse;whiteSpace=wrap;html=1;" vertex="1" parent="1">
          <mxGeometry x="180" y="520" width="100" height="50" as="geometry" />
        </mxCell>
        <mxCell id="F-vQ1ZQjYlF47RwyghoB-20" value="ID Country" style="ellipse;whiteSpace=wrap;html=1;" vertex="1" parent="1">
          <mxGeometry x="530" y="520" width="100" height="50" as="geometry" />
        </mxCell>
        <mxCell id="F-vQ1ZQjYlF47RwyghoB-21" value="" style="edgeStyle=orthogonalEdgeStyle;rounded=0;orthogonalLoop=1;jettySize=auto;html=1;endArrow=none;endFill=0;" edge="1" parent="1" source="F-vQ1ZQjYlF47RwyghoB-12" target="F-vQ1ZQjYlF47RwyghoB-20">
          <mxGeometry relative="1" as="geometry">
            <mxPoint x="425" y="410" as="sourcePoint" />
            <mxPoint x="425" y="620" as="targetPoint" />
          </mxGeometry>
        </mxCell>
        <mxCell id="F-vQ1ZQjYlF47RwyghoB-25" value="" style="edgeStyle=orthogonalEdgeStyle;rounded=0;orthogonalLoop=1;jettySize=auto;html=1;endArrow=none;endFill=0;" edge="1" parent="1" source="F-vQ1ZQjYlF47RwyghoB-22" target="F-vQ1ZQjYlF47RwyghoB-24">
          <mxGeometry relative="1" as="geometry" />
        </mxCell>
        <mxCell id="F-vQ1ZQjYlF47RwyghoB-22" value="Relates" style="rhombus;whiteSpace=wrap;html=1;" vertex="1" parent="1">
          <mxGeometry x="370" y="690" width="110" height="80" as="geometry" />
        </mxCell>
        <mxCell id="F-vQ1ZQjYlF47RwyghoB-27" value="" style="edgeStyle=orthogonalEdgeStyle;rounded=0;orthogonalLoop=1;jettySize=auto;html=1;endArrow=none;endFill=0;" edge="1" parent="1" source="F-vQ1ZQjYlF47RwyghoB-24" target="F-vQ1ZQjYlF47RwyghoB-26">
          <mxGeometry relative="1" as="geometry" />
        </mxCell>
        <mxCell id="F-vQ1ZQjYlF47RwyghoB-24" value="ID City" style="ellipse;whiteSpace=wrap;html=1;" vertex="1" parent="1">
          <mxGeometry x="375" y="800" width="100" height="50" as="geometry" />
        </mxCell>
        <mxCell id="F-vQ1ZQjYlF47RwyghoB-29" value="" style="edgeStyle=orthogonalEdgeStyle;rounded=0;orthogonalLoop=1;jettySize=auto;html=1;endArrow=none;endFill=0;" edge="1" parent="1" source="F-vQ1ZQjYlF47RwyghoB-26" target="F-vQ1ZQjYlF47RwyghoB-28">
          <mxGeometry relative="1" as="geometry" />
        </mxCell>
        <mxCell id="F-vQ1ZQjYlF47RwyghoB-33" value="" style="edgeStyle=orthogonalEdgeStyle;rounded=0;orthogonalLoop=1;jettySize=auto;html=1;endArrow=none;endFill=0;" edge="1" parent="1" source="F-vQ1ZQjYlF47RwyghoB-26" target="F-vQ1ZQjYlF47RwyghoB-32">
          <mxGeometry relative="1" as="geometry" />
        </mxCell>
        <mxCell id="F-vQ1ZQjYlF47RwyghoB-35" value="" style="edgeStyle=orthogonalEdgeStyle;rounded=0;orthogonalLoop=1;jettySize=auto;html=1;endArrow=none;endFill=0;" edge="1" parent="1" source="F-vQ1ZQjYlF47RwyghoB-26" target="F-vQ1ZQjYlF47RwyghoB-34">
          <mxGeometry relative="1" as="geometry" />
        </mxCell>
        <mxCell id="F-vQ1ZQjYlF47RwyghoB-37" value="" style="edgeStyle=orthogonalEdgeStyle;rounded=0;orthogonalLoop=1;jettySize=auto;html=1;endArrow=none;endFill=0;" edge="1" parent="1" source="F-vQ1ZQjYlF47RwyghoB-26" target="F-vQ1ZQjYlF47RwyghoB-36">
          <mxGeometry relative="1" as="geometry" />
        </mxCell>
        <mxCell id="F-vQ1ZQjYlF47RwyghoB-39" value="" style="edgeStyle=orthogonalEdgeStyle;rounded=0;orthogonalLoop=1;jettySize=auto;html=1;endArrow=none;endFill=0;entryX=0;entryY=0.5;entryDx=0;entryDy=0;" edge="1" parent="1" source="F-vQ1ZQjYlF47RwyghoB-26" target="F-vQ1ZQjYlF47RwyghoB-38">
          <mxGeometry relative="1" as="geometry" />
        </mxCell>
        <mxCell id="F-vQ1ZQjYlF47RwyghoB-26" value="Flight" style="whiteSpace=wrap;html=1;" vertex="1" parent="1">
          <mxGeometry x="365" y="890" width="120" height="60" as="geometry" />
        </mxCell>
        <mxCell id="F-vQ1ZQjYlF47RwyghoB-56" value="" style="edgeStyle=orthogonalEdgeStyle;rounded=0;orthogonalLoop=1;jettySize=auto;html=1;endArrow=none;endFill=0;" edge="1" parent="1" source="F-vQ1ZQjYlF47RwyghoB-28" target="F-vQ1ZQjYlF47RwyghoB-55">
          <mxGeometry relative="1" as="geometry" />
        </mxCell>
        <mxCell id="F-vQ1ZQjYlF47RwyghoB-28" value="ID Flight" style="ellipse;whiteSpace=wrap;html=1;" vertex="1" parent="1">
          <mxGeometry x="365" y="1000" width="120" height="60" as="geometry" />
        </mxCell>
        <mxCell id="F-vQ1ZQjYlF47RwyghoB-41" value="" style="edgeStyle=orthogonalEdgeStyle;rounded=0;orthogonalLoop=1;jettySize=auto;html=1;endArrow=none;endFill=0;" edge="1" parent="1" source="F-vQ1ZQjYlF47RwyghoB-32" target="F-vQ1ZQjYlF47RwyghoB-40">
          <mxGeometry relative="1" as="geometry" />
        </mxCell>
        <mxCell id="F-vQ1ZQjYlF47RwyghoB-32" value="ID Plane" style="ellipse;whiteSpace=wrap;html=1;" vertex="1" parent="1">
          <mxGeometry x="250" y="890" width="80" height="60" as="geometry" />
        </mxCell>
        <mxCell id="F-vQ1ZQjYlF47RwyghoB-34" value="Date" style="ellipse;whiteSpace=wrap;html=1;" vertex="1" parent="1">
          <mxGeometry x="560" y="830" width="120" height="60" as="geometry" />
        </mxCell>
        <mxCell id="F-vQ1ZQjYlF47RwyghoB-36" value="Takeoff time" style="ellipse;whiteSpace=wrap;html=1;" vertex="1" parent="1">
          <mxGeometry x="560" y="900" width="120" height="60" as="geometry" />
        </mxCell>
        <mxCell id="F-vQ1ZQjYlF47RwyghoB-38" value="Boarding time" style="ellipse;whiteSpace=wrap;html=1;" vertex="1" parent="1">
          <mxGeometry x="560" y="970" width="120" height="60" as="geometry" />
        </mxCell>
        <mxCell id="F-vQ1ZQjYlF47RwyghoB-45" value="" style="edgeStyle=orthogonalEdgeStyle;rounded=0;orthogonalLoop=1;jettySize=auto;html=1;endArrow=none;endFill=0;" edge="1" parent="1" source="F-vQ1ZQjYlF47RwyghoB-40" target="F-vQ1ZQjYlF47RwyghoB-44">
          <mxGeometry relative="1" as="geometry" />
        </mxCell>
        <mxCell id="F-vQ1ZQjYlF47RwyghoB-40" value="Execute" style="rhombus;whiteSpace=wrap;html=1;" vertex="1" parent="1">
          <mxGeometry x="150" y="880" width="80" height="80" as="geometry" />
        </mxCell>
        <mxCell id="F-vQ1ZQjYlF47RwyghoB-48" value="" style="edgeStyle=orthogonalEdgeStyle;rounded=0;orthogonalLoop=1;jettySize=auto;html=1;endArrow=none;endFill=0;" edge="1" parent="1" source="F-vQ1ZQjYlF47RwyghoB-44" target="F-vQ1ZQjYlF47RwyghoB-47">
          <mxGeometry relative="1" as="geometry" />
        </mxCell>
        <mxCell id="F-vQ1ZQjYlF47RwyghoB-44" value="ID Plane" style="ellipse;whiteSpace=wrap;html=1;" vertex="1" parent="1">
          <mxGeometry x="50" y="890" width="80" height="60" as="geometry" />
        </mxCell>
        <mxCell id="F-vQ1ZQjYlF47RwyghoB-46" value="" style="edgeStyle=orthogonalEdgeStyle;rounded=0;orthogonalLoop=1;jettySize=auto;html=1;endArrow=none;endFill=0;" edge="1" parent="1" source="F-vQ1ZQjYlF47RwyghoB-40" target="F-vQ1ZQjYlF47RwyghoB-44">
          <mxGeometry relative="1" as="geometry">
            <mxPoint x="150" y="920" as="sourcePoint" />
            <mxPoint x="30" y="920" as="targetPoint" />
          </mxGeometry>
        </mxCell>
        <mxCell id="F-vQ1ZQjYlF47RwyghoB-50" value="" style="edgeStyle=orthogonalEdgeStyle;rounded=0;orthogonalLoop=1;jettySize=auto;html=1;endArrow=none;endFill=0;" edge="1" parent="1" source="F-vQ1ZQjYlF47RwyghoB-47" target="F-vQ1ZQjYlF47RwyghoB-49">
          <mxGeometry relative="1" as="geometry" />
        </mxCell>
        <mxCell id="F-vQ1ZQjYlF47RwyghoB-52" value="" style="edgeStyle=orthogonalEdgeStyle;rounded=0;orthogonalLoop=1;jettySize=auto;html=1;endArrow=none;endFill=0;" edge="1" parent="1" source="F-vQ1ZQjYlF47RwyghoB-47" target="F-vQ1ZQjYlF47RwyghoB-51">
          <mxGeometry relative="1" as="geometry" />
        </mxCell>
        <mxCell id="F-vQ1ZQjYlF47RwyghoB-47" value="Plane" style="whiteSpace=wrap;html=1;" vertex="1" parent="1">
          <mxGeometry x="-100" y="890" width="120" height="60" as="geometry" />
        </mxCell>
        <mxCell id="F-vQ1ZQjYlF47RwyghoB-49" value="name" style="ellipse;whiteSpace=wrap;html=1;" vertex="1" parent="1">
          <mxGeometry x="-260" y="840" width="120" height="60" as="geometry" />
        </mxCell>
        <mxCell id="F-vQ1ZQjYlF47RwyghoB-51" value="number seats" style="ellipse;whiteSpace=wrap;html=1;" vertex="1" parent="1">
          <mxGeometry x="-260" y="910" width="120" height="60" as="geometry" />
        </mxCell>
        <mxCell id="F-vQ1ZQjYlF47RwyghoB-74" value="" style="edgeStyle=orthogonalEdgeStyle;rounded=0;orthogonalLoop=1;jettySize=auto;html=1;endArrow=none;endFill=0;" edge="1" parent="1" source="F-vQ1ZQjYlF47RwyghoB-55" target="F-vQ1ZQjYlF47RwyghoB-73">
          <mxGeometry relative="1" as="geometry" />
        </mxCell>
        <mxCell id="F-vQ1ZQjYlF47RwyghoB-55" value="Relates" style="rhombus;whiteSpace=wrap;html=1;" vertex="1" parent="1">
          <mxGeometry x="385" y="1090" width="80" height="80" as="geometry" />
        </mxCell>
        <mxCell id="F-vQ1ZQjYlF47RwyghoB-60" value="" style="edgeStyle=orthogonalEdgeStyle;rounded=0;orthogonalLoop=1;jettySize=auto;html=1;endArrow=none;endFill=0;" edge="1" parent="1" source="F-vQ1ZQjYlF47RwyghoB-57" target="F-vQ1ZQjYlF47RwyghoB-59">
          <mxGeometry relative="1" as="geometry" />
        </mxCell>
        <mxCell id="F-vQ1ZQjYlF47RwyghoB-62" value="" style="edgeStyle=orthogonalEdgeStyle;rounded=0;orthogonalLoop=1;jettySize=auto;html=1;endArrow=none;endFill=0;" edge="1" parent="1" source="F-vQ1ZQjYlF47RwyghoB-57" target="F-vQ1ZQjYlF47RwyghoB-61">
          <mxGeometry relative="1" as="geometry" />
        </mxCell>
        <mxCell id="F-vQ1ZQjYlF47RwyghoB-57" value="Ticket" style="whiteSpace=wrap;html=1;" vertex="1" parent="1">
          <mxGeometry x="365" y="1290" width="120" height="60" as="geometry" />
        </mxCell>
        <mxCell id="F-vQ1ZQjYlF47RwyghoB-59" value="seat" style="ellipse;whiteSpace=wrap;html=1;" vertex="1" parent="1">
          <mxGeometry x="230" y="1295" width="100" height="50" as="geometry" />
        </mxCell>
        <mxCell id="F-vQ1ZQjYlF47RwyghoB-64" value="" style="edgeStyle=orthogonalEdgeStyle;rounded=0;orthogonalLoop=1;jettySize=auto;html=1;endArrow=none;endFill=0;" edge="1" parent="1" source="F-vQ1ZQjYlF47RwyghoB-61" target="F-vQ1ZQjYlF47RwyghoB-63">
          <mxGeometry relative="1" as="geometry" />
        </mxCell>
        <mxCell id="F-vQ1ZQjYlF47RwyghoB-61" value="ID Passenger" style="ellipse;whiteSpace=wrap;html=1;" vertex="1" parent="1">
          <mxGeometry x="509" y="1290" width="120" height="60" as="geometry" />
        </mxCell>
        <mxCell id="F-vQ1ZQjYlF47RwyghoB-66" value="" style="edgeStyle=orthogonalEdgeStyle;rounded=0;orthogonalLoop=1;jettySize=auto;html=1;endArrow=none;endFill=0;" edge="1" parent="1" source="F-vQ1ZQjYlF47RwyghoB-63" target="F-vQ1ZQjYlF47RwyghoB-65">
          <mxGeometry relative="1" as="geometry" />
        </mxCell>
        <mxCell id="F-vQ1ZQjYlF47RwyghoB-63" value="Defines" style="rhombus;whiteSpace=wrap;html=1;" vertex="1" parent="1">
          <mxGeometry x="639" y="1280" width="80" height="80" as="geometry" />
        </mxCell>
        <mxCell id="F-vQ1ZQjYlF47RwyghoB-68" value="" style="edgeStyle=orthogonalEdgeStyle;rounded=0;orthogonalLoop=1;jettySize=auto;html=1;endArrow=none;endFill=0;" edge="1" parent="1" source="F-vQ1ZQjYlF47RwyghoB-65" target="F-vQ1ZQjYlF47RwyghoB-67">
          <mxGeometry relative="1" as="geometry" />
        </mxCell>
        <mxCell id="F-vQ1ZQjYlF47RwyghoB-65" value="&lt;span&gt;ID Passenger&lt;/span&gt;" style="ellipse;whiteSpace=wrap;html=1;" vertex="1" parent="1">
          <mxGeometry x="729" y="1290" width="120" height="60" as="geometry" />
        </mxCell>
        <mxCell id="F-vQ1ZQjYlF47RwyghoB-70" value="" style="edgeStyle=orthogonalEdgeStyle;rounded=0;orthogonalLoop=1;jettySize=auto;html=1;endArrow=none;endFill=0;" edge="1" parent="1" source="F-vQ1ZQjYlF47RwyghoB-67" target="F-vQ1ZQjYlF47RwyghoB-69">
          <mxGeometry relative="1" as="geometry" />
        </mxCell>
        <mxCell id="F-vQ1ZQjYlF47RwyghoB-67" value="Passenger" style="whiteSpace=wrap;html=1;" vertex="1" parent="1">
          <mxGeometry x="859" y="1290" width="120" height="60" as="geometry" />
        </mxCell>
        <mxCell id="F-vQ1ZQjYlF47RwyghoB-69" value="name" style="ellipse;whiteSpace=wrap;html=1;" vertex="1" parent="1">
          <mxGeometry x="869" y="1220" width="100" height="50" as="geometry" />
        </mxCell>
        <mxCell id="F-vQ1ZQjYlF47RwyghoB-75" value="" style="edgeStyle=orthogonalEdgeStyle;rounded=0;orthogonalLoop=1;jettySize=auto;html=1;endArrow=none;endFill=0;" edge="1" parent="1" source="F-vQ1ZQjYlF47RwyghoB-73" target="F-vQ1ZQjYlF47RwyghoB-57">
          <mxGeometry relative="1" as="geometry" />
        </mxCell>
        <mxCell id="F-vQ1ZQjYlF47RwyghoB-73" value="ID Flight" style="ellipse;whiteSpace=wrap;html=1;" vertex="1" parent="1">
          <mxGeometry x="365" y="1200" width="120" height="60" as="geometry" />
        </mxCell>
      </root>
    </mxGraphModel>
  </diagram>
</mxfile>
